<mxfile host="app.diagrams.net" modified="2020-12-01T18:17:05.661Z" agent="5.0 (Macintosh; Intel Mac OS X 10_15_7) AppleWebKit/537.36 (KHTML, like Gecko) Chrome/87.0.4280.67 Safari/537.36 Edg/87.0.664.52" etag="1VHCvFnCgRdFeiPwPvLb" version="13.10.5" type="github">
  <diagram id="R2lEEEUBdFMjLlhIrx00" name="Page-1">
    <mxGraphModel dx="3036" dy="1788" grid="1" gridSize="10" guides="1" tooltips="1" connect="1" arrows="1" fold="1" page="1" pageScale="1" pageWidth="850" pageHeight="1100" math="0" shadow="0" extFonts="Permanent Marker^https://fonts.googleapis.com/css?family=Permanent+Marker">
      <root>
        <mxCell id="0" />
        <mxCell id="1" parent="0" />
        <mxCell id="V0NO3VjL0VKziDa6hl1m-38" value="section" style="swimlane;" vertex="1" parent="1">
          <mxGeometry x="810" y="610" width="280" height="160" as="geometry">
            <mxRectangle x="120" y="620" width="70" height="23" as="alternateBounds" />
          </mxGeometry>
        </mxCell>
        <mxCell id="V0NO3VjL0VKziDa6hl1m-39" value="" style="shape=internalStorage;whiteSpace=wrap;html=1;backgroundOutline=1;dx=30;dy=30;" vertex="1" parent="V0NO3VjL0VKziDa6hl1m-38">
          <mxGeometry y="20" width="280" height="140" as="geometry" />
        </mxCell>
        <mxCell id="V0NO3VjL0VKziDa6hl1m-40" value="section_id varchar(10) NOT NULL " style="shape=partialRectangle;overflow=hidden;connectable=0;fillColor=none;top=0;left=0;bottom=0;right=0;align=left;spacingLeft=6;fontStyle=5;" vertex="1" parent="V0NO3VjL0VKziDa6hl1m-38">
          <mxGeometry x="30" y="20" width="250" height="30" as="geometry" />
        </mxCell>
        <mxCell id="V0NO3VjL0VKziDa6hl1m-41" value="PK" style="shape=partialRectangle;overflow=hidden;connectable=0;fillColor=none;top=0;left=0;bottom=0;right=0;fontStyle=1;" vertex="1" parent="V0NO3VjL0VKziDa6hl1m-38">
          <mxGeometry y="20" width="30" height="30" as="geometry" />
        </mxCell>
        <mxCell id="V0NO3VjL0VKziDa6hl1m-42" value="semester varchar(10) NOT NULL" style="shape=partialRectangle;overflow=hidden;connectable=0;fillColor=none;top=0;left=0;bottom=0;right=0;align=left;spacingLeft=6;" vertex="1" parent="V0NO3VjL0VKziDa6hl1m-38">
          <mxGeometry x="30" y="50" width="250" height="30" as="geometry" />
        </mxCell>
        <mxCell id="V0NO3VjL0VKziDa6hl1m-44" value="course_id varchar(10) NOT NULL" style="shape=partialRectangle;overflow=hidden;connectable=0;fillColor=none;top=0;left=0;bottom=0;right=0;align=left;spacingLeft=6;" vertex="1" parent="V0NO3VjL0VKziDa6hl1m-38">
          <mxGeometry x="30" y="80" width="250" height="30" as="geometry" />
        </mxCell>
        <mxCell id="V0NO3VjL0VKziDa6hl1m-45" value="FK" style="shape=partialRectangle;overflow=hidden;connectable=0;fillColor=none;top=0;left=0;bottom=0;right=0;fontStyle=0;" vertex="1" parent="V0NO3VjL0VKziDa6hl1m-38">
          <mxGeometry y="80" width="30" height="30" as="geometry" />
        </mxCell>
        <mxCell id="V0NO3VjL0VKziDa6hl1m-46" value="year date NOT NULL" style="shape=partialRectangle;overflow=hidden;connectable=0;fillColor=none;top=0;left=0;bottom=0;right=0;align=left;spacingLeft=6;" vertex="1" parent="V0NO3VjL0VKziDa6hl1m-38">
          <mxGeometry x="30" y="110" width="250" height="30" as="geometry" />
        </mxCell>
        <mxCell id="V0NO3VjL0VKziDa6hl1m-47" value="instructor_id varchar(10) NOT NULL" style="shape=partialRectangle;overflow=hidden;connectable=0;fillColor=none;top=0;left=0;bottom=0;right=0;align=left;spacingLeft=6;" vertex="1" parent="V0NO3VjL0VKziDa6hl1m-38">
          <mxGeometry x="30" y="130" width="250" height="30" as="geometry" />
        </mxCell>
        <mxCell id="V0NO3VjL0VKziDa6hl1m-48" value="FK" style="shape=partialRectangle;overflow=hidden;connectable=0;fillColor=none;top=0;left=0;bottom=0;right=0;fontStyle=0;" vertex="1" parent="V0NO3VjL0VKziDa6hl1m-38">
          <mxGeometry y="130" width="30" height="30" as="geometry" />
        </mxCell>
        <mxCell id="V0NO3VjL0VKziDa6hl1m-49" value="grade" style="swimlane;" vertex="1" parent="1">
          <mxGeometry x="660" y="940" width="290" height="145" as="geometry">
            <mxRectangle x="480" y="675" width="70" height="23" as="alternateBounds" />
          </mxGeometry>
        </mxCell>
        <mxCell id="V0NO3VjL0VKziDa6hl1m-50" value="" style="shape=internalStorage;whiteSpace=wrap;html=1;backgroundOutline=1;dx=40;dy=35;" vertex="1" parent="V0NO3VjL0VKziDa6hl1m-49">
          <mxGeometry y="20" width="290" height="120" as="geometry" />
        </mxCell>
        <mxCell id="V0NO3VjL0VKziDa6hl1m-51" value="PK" style="shape=partialRectangle;overflow=hidden;connectable=0;fillColor=none;top=0;left=0;bottom=0;right=0;fontStyle=1;" vertex="1" parent="V0NO3VjL0VKziDa6hl1m-49">
          <mxGeometry y="20" width="40" height="40" as="geometry" />
        </mxCell>
        <mxCell id="V0NO3VjL0VKziDa6hl1m-52" value="grade_id varchar(10) NOT NULL " style="shape=partialRectangle;overflow=hidden;connectable=0;fillColor=none;top=0;left=0;bottom=0;right=0;align=left;spacingLeft=6;fontStyle=5;" vertex="1" parent="V0NO3VjL0VKziDa6hl1m-49">
          <mxGeometry x="40" y="25" width="250" height="30" as="geometry" />
        </mxCell>
        <mxCell id="V0NO3VjL0VKziDa6hl1m-53" value="student_id varchar(10) NOT NULL" style="shape=partialRectangle;overflow=hidden;connectable=0;fillColor=none;top=0;left=0;bottom=0;right=0;align=left;spacingLeft=6;" vertex="1" parent="V0NO3VjL0VKziDa6hl1m-49">
          <mxGeometry x="40" y="55" width="250" height="30" as="geometry" />
        </mxCell>
        <mxCell id="V0NO3VjL0VKziDa6hl1m-54" value="section_id varchar(10) NOT NULL" style="shape=partialRectangle;overflow=hidden;connectable=0;fillColor=none;top=0;left=0;bottom=0;right=0;align=left;spacingLeft=6;" vertex="1" parent="V0NO3VjL0VKziDa6hl1m-49">
          <mxGeometry x="40" y="75" width="250" height="30" as="geometry" />
        </mxCell>
        <mxCell id="V0NO3VjL0VKziDa6hl1m-55" value="grade_letter varchar(1) NOT NULL" style="shape=partialRectangle;overflow=hidden;connectable=0;fillColor=none;top=0;left=0;bottom=0;right=0;align=left;spacingLeft=6;" vertex="1" parent="V0NO3VjL0VKziDa6hl1m-49">
          <mxGeometry x="40" y="95" width="250" height="30" as="geometry" />
        </mxCell>
        <mxCell id="V0NO3VjL0VKziDa6hl1m-56" value="grade_number int NOT NULL" style="shape=partialRectangle;overflow=hidden;connectable=0;fillColor=none;top=0;left=0;bottom=0;right=0;align=left;spacingLeft=6;" vertex="1" parent="V0NO3VjL0VKziDa6hl1m-49">
          <mxGeometry x="40" y="115" width="250" height="30" as="geometry" />
        </mxCell>
        <mxCell id="V0NO3VjL0VKziDa6hl1m-57" value="FK" style="shape=partialRectangle;overflow=hidden;connectable=0;fillColor=none;top=0;left=0;bottom=0;right=0;fontStyle=0;" vertex="1" parent="V0NO3VjL0VKziDa6hl1m-49">
          <mxGeometry y="50" width="40" height="40" as="geometry" />
        </mxCell>
        <mxCell id="V0NO3VjL0VKziDa6hl1m-58" value="FK" style="shape=partialRectangle;overflow=hidden;connectable=0;fillColor=none;top=0;left=0;bottom=0;right=0;fontStyle=0;" vertex="1" parent="V0NO3VjL0VKziDa6hl1m-49">
          <mxGeometry y="72.5" width="40" height="35" as="geometry" />
        </mxCell>
        <mxCell id="V0NO3VjL0VKziDa6hl1m-60" value="" style="group" vertex="1" connectable="0" parent="1">
          <mxGeometry x="700" y="320" width="280" height="150" as="geometry" />
        </mxCell>
        <mxCell id="C-vyLk0tnHw3VtMMgP7b-13" value="instructor" style="shape=table;startSize=30;container=1;collapsible=1;childLayout=tableLayout;fixedRows=1;rowLines=0;fontStyle=1;align=center;resizeLast=1;" parent="V0NO3VjL0VKziDa6hl1m-60" vertex="1">
          <mxGeometry width="280" height="150" as="geometry">
            <mxRectangle width="90" height="30" as="alternateBounds" />
          </mxGeometry>
        </mxCell>
        <mxCell id="C-vyLk0tnHw3VtMMgP7b-14" value="" style="shape=partialRectangle;collapsible=0;dropTarget=0;pointerEvents=0;fillColor=none;points=[[0,0.5],[1,0.5]];portConstraint=eastwest;top=0;left=0;right=0;bottom=1;" parent="C-vyLk0tnHw3VtMMgP7b-13" vertex="1">
          <mxGeometry y="30" width="280" height="30" as="geometry" />
        </mxCell>
        <mxCell id="C-vyLk0tnHw3VtMMgP7b-15" value="PK" style="shape=partialRectangle;overflow=hidden;connectable=0;fillColor=none;top=0;left=0;bottom=0;right=0;fontStyle=1;" parent="C-vyLk0tnHw3VtMMgP7b-14" vertex="1">
          <mxGeometry width="30" height="30" as="geometry" />
        </mxCell>
        <mxCell id="C-vyLk0tnHw3VtMMgP7b-16" value="instructor_id varchar(10) NOT NULL " style="shape=partialRectangle;overflow=hidden;connectable=0;fillColor=none;top=0;left=0;bottom=0;right=0;align=left;spacingLeft=6;fontStyle=5;" parent="C-vyLk0tnHw3VtMMgP7b-14" vertex="1">
          <mxGeometry x="30" width="250" height="30" as="geometry" />
        </mxCell>
        <mxCell id="C-vyLk0tnHw3VtMMgP7b-17" value="" style="shape=partialRectangle;collapsible=0;dropTarget=0;pointerEvents=0;fillColor=none;points=[[0,0.5],[1,0.5]];portConstraint=eastwest;top=0;left=0;right=0;bottom=0;" parent="C-vyLk0tnHw3VtMMgP7b-13" vertex="1">
          <mxGeometry y="60" width="280" height="30" as="geometry" />
        </mxCell>
        <mxCell id="C-vyLk0tnHw3VtMMgP7b-18" value="" style="shape=partialRectangle;overflow=hidden;connectable=0;fillColor=none;top=0;left=0;bottom=0;right=0;" parent="C-vyLk0tnHw3VtMMgP7b-17" vertex="1">
          <mxGeometry width="30" height="30" as="geometry" />
        </mxCell>
        <mxCell id="C-vyLk0tnHw3VtMMgP7b-19" value="first_name varchar(50) NOT NULL" style="shape=partialRectangle;overflow=hidden;connectable=0;fillColor=none;top=0;left=0;bottom=0;right=0;align=left;spacingLeft=6;" parent="C-vyLk0tnHw3VtMMgP7b-17" vertex="1">
          <mxGeometry x="30" width="250" height="30" as="geometry" />
        </mxCell>
        <mxCell id="C-vyLk0tnHw3VtMMgP7b-20" value="" style="shape=partialRectangle;collapsible=0;dropTarget=0;pointerEvents=0;fillColor=none;points=[[0,0.5],[1,0.5]];portConstraint=eastwest;top=0;left=0;right=0;bottom=0;" parent="C-vyLk0tnHw3VtMMgP7b-13" vertex="1">
          <mxGeometry y="90" width="280" height="30" as="geometry" />
        </mxCell>
        <mxCell id="C-vyLk0tnHw3VtMMgP7b-21" value="" style="shape=partialRectangle;overflow=hidden;connectable=0;fillColor=none;top=0;left=0;bottom=0;right=0;" parent="C-vyLk0tnHw3VtMMgP7b-20" vertex="1">
          <mxGeometry width="30" height="30" as="geometry" />
        </mxCell>
        <mxCell id="C-vyLk0tnHw3VtMMgP7b-22" value="last_name varchar(250) NOT NULL" style="shape=partialRectangle;overflow=hidden;connectable=0;fillColor=none;top=0;left=0;bottom=0;right=0;align=left;spacingLeft=6;" parent="C-vyLk0tnHw3VtMMgP7b-20" vertex="1">
          <mxGeometry x="30" width="250" height="30" as="geometry" />
        </mxCell>
        <mxCell id="V0NO3VjL0VKziDa6hl1m-34" value="department_name varchar(50) NOT NULL" style="shape=partialRectangle;overflow=hidden;connectable=0;fillColor=none;top=0;left=0;bottom=0;right=0;align=left;spacingLeft=6;" vertex="1" parent="V0NO3VjL0VKziDa6hl1m-60">
          <mxGeometry x="30" y="120" width="240" height="30" as="geometry" />
        </mxCell>
        <mxCell id="V0NO3VjL0VKziDa6hl1m-35" value="FK" style="shape=partialRectangle;overflow=hidden;connectable=0;fillColor=none;top=0;left=0;bottom=0;right=0;fontStyle=0;" vertex="1" parent="V0NO3VjL0VKziDa6hl1m-60">
          <mxGeometry y="120" width="30" height="30" as="geometry" />
        </mxCell>
        <mxCell id="V0NO3VjL0VKziDa6hl1m-61" value="" style="group" vertex="1" connectable="0" parent="1">
          <mxGeometry x="1370" y="370" width="280" height="200" as="geometry" />
        </mxCell>
        <mxCell id="V0NO3VjL0VKziDa6hl1m-62" value="" style="group" vertex="1" connectable="0" parent="V0NO3VjL0VKziDa6hl1m-61">
          <mxGeometry x="-60" width="280" height="200" as="geometry" />
        </mxCell>
        <mxCell id="V0NO3VjL0VKziDa6hl1m-18" value="semester_hours int NOT NULL" style="shape=partialRectangle;overflow=hidden;connectable=0;fillColor=none;top=0;left=0;bottom=0;right=0;align=left;spacingLeft=6;" vertex="1" parent="V0NO3VjL0VKziDa6hl1m-62">
          <mxGeometry x="30" y="110" width="220" height="30" as="geometry" />
        </mxCell>
        <mxCell id="V0NO3VjL0VKziDa6hl1m-19" value="level varchar(250) NOT NULL" style="shape=partialRectangle;overflow=hidden;connectable=0;fillColor=none;top=0;left=0;bottom=0;right=0;align=left;spacingLeft=6;" vertex="1" parent="V0NO3VjL0VKziDa6hl1m-62">
          <mxGeometry x="30" y="140" width="220" height="30" as="geometry" />
        </mxCell>
        <mxCell id="V0NO3VjL0VKziDa6hl1m-20" value="department_name varchar(50) NOT NULL" style="shape=partialRectangle;overflow=hidden;connectable=0;fillColor=none;top=0;left=0;bottom=0;right=0;align=left;spacingLeft=6;" vertex="1" parent="V0NO3VjL0VKziDa6hl1m-62">
          <mxGeometry x="30" y="170" width="240" height="30" as="geometry" />
        </mxCell>
        <mxCell id="V0NO3VjL0VKziDa6hl1m-21" value="FK" style="shape=partialRectangle;overflow=hidden;connectable=0;fillColor=none;top=0;left=0;bottom=0;right=0;fontStyle=0;" vertex="1" parent="V0NO3VjL0VKziDa6hl1m-62">
          <mxGeometry y="170" width="30" height="30" as="geometry" />
        </mxCell>
        <mxCell id="V0NO3VjL0VKziDa6hl1m-24" value="course" style="shape=table;startSize=30;container=1;collapsible=1;childLayout=tableLayout;fixedRows=1;rowLines=0;fontStyle=1;align=center;resizeLast=1;" vertex="1" parent="V0NO3VjL0VKziDa6hl1m-62">
          <mxGeometry width="280" height="200" as="geometry">
            <mxRectangle width="70" height="30" as="alternateBounds" />
          </mxGeometry>
        </mxCell>
        <mxCell id="V0NO3VjL0VKziDa6hl1m-25" value="" style="shape=partialRectangle;collapsible=0;dropTarget=0;pointerEvents=0;fillColor=none;points=[[0,0.5],[1,0.5]];portConstraint=eastwest;top=0;left=0;right=0;bottom=1;" vertex="1" parent="V0NO3VjL0VKziDa6hl1m-24">
          <mxGeometry y="30" width="280" height="30" as="geometry" />
        </mxCell>
        <mxCell id="V0NO3VjL0VKziDa6hl1m-26" value="PK" style="shape=partialRectangle;overflow=hidden;connectable=0;fillColor=none;top=0;left=0;bottom=0;right=0;fontStyle=1;" vertex="1" parent="V0NO3VjL0VKziDa6hl1m-25">
          <mxGeometry width="30" height="30" as="geometry" />
        </mxCell>
        <mxCell id="V0NO3VjL0VKziDa6hl1m-27" value="course_id varchar(10) NOT NULL " style="shape=partialRectangle;overflow=hidden;connectable=0;fillColor=none;top=0;left=0;bottom=0;right=0;align=left;spacingLeft=6;fontStyle=5;" vertex="1" parent="V0NO3VjL0VKziDa6hl1m-25">
          <mxGeometry x="30" width="250" height="30" as="geometry" />
        </mxCell>
        <mxCell id="V0NO3VjL0VKziDa6hl1m-28" value="" style="shape=partialRectangle;collapsible=0;dropTarget=0;pointerEvents=0;fillColor=none;points=[[0,0.5],[1,0.5]];portConstraint=eastwest;top=0;left=0;right=0;bottom=0;" vertex="1" parent="V0NO3VjL0VKziDa6hl1m-24">
          <mxGeometry y="60" width="280" height="30" as="geometry" />
        </mxCell>
        <mxCell id="V0NO3VjL0VKziDa6hl1m-29" value="" style="shape=partialRectangle;overflow=hidden;connectable=0;fillColor=none;top=0;left=0;bottom=0;right=0;" vertex="1" parent="V0NO3VjL0VKziDa6hl1m-28">
          <mxGeometry width="30" height="30" as="geometry" />
        </mxCell>
        <mxCell id="V0NO3VjL0VKziDa6hl1m-30" value="course_name varchar(50) NOT NULL" style="shape=partialRectangle;overflow=hidden;connectable=0;fillColor=none;top=0;left=0;bottom=0;right=0;align=left;spacingLeft=6;" vertex="1" parent="V0NO3VjL0VKziDa6hl1m-28">
          <mxGeometry x="30" width="250" height="30" as="geometry" />
        </mxCell>
        <mxCell id="V0NO3VjL0VKziDa6hl1m-31" value="" style="shape=partialRectangle;collapsible=0;dropTarget=0;pointerEvents=0;fillColor=none;points=[[0,0.5],[1,0.5]];portConstraint=eastwest;top=0;left=0;right=0;bottom=0;" vertex="1" parent="V0NO3VjL0VKziDa6hl1m-24">
          <mxGeometry y="90" width="280" height="30" as="geometry" />
        </mxCell>
        <mxCell id="V0NO3VjL0VKziDa6hl1m-32" value="" style="shape=partialRectangle;overflow=hidden;connectable=0;fillColor=none;top=0;left=0;bottom=0;right=0;" vertex="1" parent="V0NO3VjL0VKziDa6hl1m-31">
          <mxGeometry width="30" height="30" as="geometry" />
        </mxCell>
        <mxCell id="V0NO3VjL0VKziDa6hl1m-33" value="description varchar(250) NOT NULL" style="shape=partialRectangle;overflow=hidden;connectable=0;fillColor=none;top=0;left=0;bottom=0;right=0;align=left;spacingLeft=6;" vertex="1" parent="V0NO3VjL0VKziDa6hl1m-31">
          <mxGeometry x="30" width="250" height="30" as="geometry" />
        </mxCell>
        <mxCell id="V0NO3VjL0VKziDa6hl1m-63" value="" style="group" vertex="1" connectable="0" parent="1">
          <mxGeometry x="1135" y="50" width="280" height="180" as="geometry" />
        </mxCell>
        <mxCell id="C-vyLk0tnHw3VtMMgP7b-2" value="department" style="shape=table;startSize=30;container=1;collapsible=1;childLayout=tableLayout;fixedRows=1;rowLines=0;fontStyle=1;align=center;resizeLast=1;" parent="V0NO3VjL0VKziDa6hl1m-63" vertex="1">
          <mxGeometry width="280" height="180" as="geometry">
            <mxRectangle width="100" height="30" as="alternateBounds" />
          </mxGeometry>
        </mxCell>
        <mxCell id="C-vyLk0tnHw3VtMMgP7b-3" value="" style="shape=partialRectangle;collapsible=0;dropTarget=0;pointerEvents=0;fillColor=none;points=[[0,0.5],[1,0.5]];portConstraint=eastwest;top=0;left=0;right=0;bottom=1;" parent="C-vyLk0tnHw3VtMMgP7b-2" vertex="1">
          <mxGeometry y="30" width="280" height="30" as="geometry" />
        </mxCell>
        <mxCell id="C-vyLk0tnHw3VtMMgP7b-4" value="PK" style="shape=partialRectangle;overflow=hidden;connectable=0;fillColor=none;top=0;left=0;bottom=0;right=0;fontStyle=1;" parent="C-vyLk0tnHw3VtMMgP7b-3" vertex="1">
          <mxGeometry width="30" height="30" as="geometry" />
        </mxCell>
        <mxCell id="C-vyLk0tnHw3VtMMgP7b-5" value="department_name varchar(50) NOT NULL " style="shape=partialRectangle;overflow=hidden;connectable=0;fillColor=none;top=0;left=0;bottom=0;right=0;align=left;spacingLeft=6;fontStyle=5;" parent="C-vyLk0tnHw3VtMMgP7b-3" vertex="1">
          <mxGeometry x="30" width="250" height="30" as="geometry" />
        </mxCell>
        <mxCell id="C-vyLk0tnHw3VtMMgP7b-6" value="" style="shape=partialRectangle;collapsible=0;dropTarget=0;pointerEvents=0;fillColor=none;points=[[0,0.5],[1,0.5]];portConstraint=eastwest;top=0;left=0;right=0;bottom=0;" parent="C-vyLk0tnHw3VtMMgP7b-2" vertex="1">
          <mxGeometry y="60" width="280" height="30" as="geometry" />
        </mxCell>
        <mxCell id="C-vyLk0tnHw3VtMMgP7b-7" value="" style="shape=partialRectangle;overflow=hidden;connectable=0;fillColor=none;top=0;left=0;bottom=0;right=0;" parent="C-vyLk0tnHw3VtMMgP7b-6" vertex="1">
          <mxGeometry width="30" height="30" as="geometry" />
        </mxCell>
        <mxCell id="C-vyLk0tnHw3VtMMgP7b-8" value="department_id varchar(50) NOT NULL" style="shape=partialRectangle;overflow=hidden;connectable=0;fillColor=none;top=0;left=0;bottom=0;right=0;align=left;spacingLeft=6;" parent="C-vyLk0tnHw3VtMMgP7b-6" vertex="1">
          <mxGeometry x="30" width="250" height="30" as="geometry" />
        </mxCell>
        <mxCell id="C-vyLk0tnHw3VtMMgP7b-9" value="" style="shape=partialRectangle;collapsible=0;dropTarget=0;pointerEvents=0;fillColor=none;points=[[0,0.5],[1,0.5]];portConstraint=eastwest;top=0;left=0;right=0;bottom=0;" parent="C-vyLk0tnHw3VtMMgP7b-2" vertex="1">
          <mxGeometry y="90" width="280" height="30" as="geometry" />
        </mxCell>
        <mxCell id="C-vyLk0tnHw3VtMMgP7b-10" value="" style="shape=partialRectangle;overflow=hidden;connectable=0;fillColor=none;top=0;left=0;bottom=0;right=0;" parent="C-vyLk0tnHw3VtMMgP7b-9" vertex="1">
          <mxGeometry width="30" height="30" as="geometry" />
        </mxCell>
        <mxCell id="C-vyLk0tnHw3VtMMgP7b-11" value="office_number varchar(10) NOT NULL" style="shape=partialRectangle;overflow=hidden;connectable=0;fillColor=none;top=0;left=0;bottom=0;right=0;align=left;spacingLeft=6;" parent="C-vyLk0tnHw3VtMMgP7b-9" vertex="1">
          <mxGeometry x="30" width="250" height="30" as="geometry" />
        </mxCell>
        <mxCell id="V0NO3VjL0VKziDa6hl1m-12" value="" style="shape=partialRectangle;collapsible=0;dropTarget=0;pointerEvents=0;fillColor=none;points=[[0,0.5],[1,0.5]];portConstraint=eastwest;top=0;left=0;right=0;bottom=0;" vertex="1" parent="V0NO3VjL0VKziDa6hl1m-63">
          <mxGeometry x="30" y="120" width="220" height="30" as="geometry" />
        </mxCell>
        <mxCell id="V0NO3VjL0VKziDa6hl1m-13" value="" style="shape=partialRectangle;overflow=hidden;connectable=0;fillColor=none;top=0;left=0;bottom=0;right=0;" vertex="1" parent="V0NO3VjL0VKziDa6hl1m-12">
          <mxGeometry width="26.4" height="30" as="geometry" />
        </mxCell>
        <mxCell id="V0NO3VjL0VKziDa6hl1m-14" value="phone varchar(10) NOT NULL" style="shape=partialRectangle;overflow=hidden;connectable=0;fillColor=none;top=0;left=0;bottom=0;right=0;align=left;spacingLeft=6;" vertex="1" parent="V0NO3VjL0VKziDa6hl1m-12">
          <mxGeometry width="193.6" height="30" as="geometry" />
        </mxCell>
        <mxCell id="V0NO3VjL0VKziDa6hl1m-15" value="" style="shape=partialRectangle;collapsible=0;dropTarget=0;pointerEvents=0;fillColor=none;points=[[0,0.5],[1,0.5]];portConstraint=eastwest;top=0;left=0;right=0;bottom=0;" vertex="1" parent="V0NO3VjL0VKziDa6hl1m-63">
          <mxGeometry x="30" y="150" width="240" height="30" as="geometry" />
        </mxCell>
        <mxCell id="V0NO3VjL0VKziDa6hl1m-16" value="" style="shape=partialRectangle;overflow=hidden;connectable=0;fillColor=none;top=0;left=0;bottom=0;right=0;" vertex="1" parent="V0NO3VjL0VKziDa6hl1m-15">
          <mxGeometry width="28.8" height="30" as="geometry" />
        </mxCell>
        <mxCell id="V0NO3VjL0VKziDa6hl1m-17" value="college varchar(10) NOT NULL" style="shape=partialRectangle;overflow=hidden;connectable=0;fillColor=none;top=0;left=0;bottom=0;right=0;align=left;spacingLeft=6;" vertex="1" parent="V0NO3VjL0VKziDa6hl1m-15">
          <mxGeometry width="240" height="30" as="geometry" />
        </mxCell>
        <mxCell id="V0NO3VjL0VKziDa6hl1m-64" value="" style="group" vertex="1" connectable="0" parent="1">
          <mxGeometry x="150" y="150" width="250" height="290" as="geometry" />
        </mxCell>
        <mxCell id="V0NO3VjL0VKziDa6hl1m-6" value="birth_date date" style="shape=partialRectangle;overflow=hidden;connectable=0;fillColor=none;top=0;left=0;bottom=0;right=0;align=left;spacingLeft=6;" vertex="1" parent="V0NO3VjL0VKziDa6hl1m-64">
          <mxGeometry x="30" y="160" width="220" height="30" as="geometry" />
        </mxCell>
        <mxCell id="V0NO3VjL0VKziDa6hl1m-22" value="FK" style="shape=partialRectangle;overflow=hidden;connectable=0;fillColor=none;top=0;left=0;bottom=0;right=0;fontStyle=0;" vertex="1" parent="V0NO3VjL0VKziDa6hl1m-64">
          <mxGeometry y="220" width="30" height="30" as="geometry" />
        </mxCell>
        <mxCell id="V0NO3VjL0VKziDa6hl1m-23" value="FK" style="shape=partialRectangle;overflow=hidden;connectable=0;fillColor=none;top=0;left=0;bottom=0;right=0;fontStyle=0;" vertex="1" parent="V0NO3VjL0VKziDa6hl1m-64">
          <mxGeometry y="240" width="30" height="30" as="geometry" />
        </mxCell>
        <mxCell id="V0NO3VjL0VKziDa6hl1m-66" value="" style="group" vertex="1" connectable="0" parent="V0NO3VjL0VKziDa6hl1m-64">
          <mxGeometry width="250" height="290" as="geometry" />
        </mxCell>
        <mxCell id="V0NO3VjL0VKziDa6hl1m-7" value="sex varchar(10)" style="shape=partialRectangle;overflow=hidden;connectable=0;fillColor=none;top=0;left=0;bottom=0;right=0;align=left;spacingLeft=6;" vertex="1" parent="V0NO3VjL0VKziDa6hl1m-66">
          <mxGeometry x="30" y="180" width="220" height="30" as="geometry" />
        </mxCell>
        <mxCell id="V0NO3VjL0VKziDa6hl1m-8" value="class varchar(15)" style="shape=partialRectangle;overflow=hidden;connectable=0;fillColor=none;top=0;left=0;bottom=0;right=0;align=left;spacingLeft=6;" vertex="1" parent="V0NO3VjL0VKziDa6hl1m-66">
          <mxGeometry x="30" y="200" width="220" height="30" as="geometry" />
        </mxCell>
        <mxCell id="V0NO3VjL0VKziDa6hl1m-9" value="major varchar(50)" style="shape=partialRectangle;overflow=hidden;connectable=0;fillColor=none;top=0;left=0;bottom=0;right=0;align=left;spacingLeft=6;" vertex="1" parent="V0NO3VjL0VKziDa6hl1m-66">
          <mxGeometry x="30" y="220" width="220" height="30" as="geometry" />
        </mxCell>
        <mxCell id="V0NO3VjL0VKziDa6hl1m-10" value="minor varchar(50)" style="shape=partialRectangle;overflow=hidden;connectable=0;fillColor=none;top=0;left=0;bottom=0;right=0;align=left;spacingLeft=6;" vertex="1" parent="V0NO3VjL0VKziDa6hl1m-66">
          <mxGeometry x="30" y="240" width="220" height="30" as="geometry" />
        </mxCell>
        <mxCell id="V0NO3VjL0VKziDa6hl1m-11" value="degree_program varchar(50)" style="shape=partialRectangle;overflow=hidden;connectable=0;fillColor=none;top=0;left=0;bottom=0;right=0;align=left;spacingLeft=6;" vertex="1" parent="V0NO3VjL0VKziDa6hl1m-66">
          <mxGeometry x="30" y="260" width="220" height="30" as="geometry" />
        </mxCell>
        <mxCell id="V0NO3VjL0VKziDa6hl1m-67" value="" style="group" vertex="1" connectable="0" parent="V0NO3VjL0VKziDa6hl1m-66">
          <mxGeometry width="250" height="290" as="geometry" />
        </mxCell>
        <mxCell id="C-vyLk0tnHw3VtMMgP7b-23" value="student" style="shape=table;startSize=30;container=1;collapsible=1;childLayout=tableLayout;fixedRows=1;rowLines=0;fontStyle=1;align=center;resizeLast=1;" parent="V0NO3VjL0VKziDa6hl1m-67" vertex="1">
          <mxGeometry width="250" height="290" as="geometry">
            <mxRectangle width="80" height="30" as="alternateBounds" />
          </mxGeometry>
        </mxCell>
        <mxCell id="C-vyLk0tnHw3VtMMgP7b-24" value="" style="shape=partialRectangle;collapsible=0;dropTarget=0;pointerEvents=0;fillColor=none;points=[[0,0.5],[1,0.5]];portConstraint=eastwest;top=0;left=0;right=0;bottom=1;" parent="C-vyLk0tnHw3VtMMgP7b-23" vertex="1">
          <mxGeometry y="30" width="250" height="30" as="geometry" />
        </mxCell>
        <mxCell id="C-vyLk0tnHw3VtMMgP7b-25" value="PK" style="shape=partialRectangle;overflow=hidden;connectable=0;fillColor=none;top=0;left=0;bottom=0;right=0;fontStyle=1;" parent="C-vyLk0tnHw3VtMMgP7b-24" vertex="1">
          <mxGeometry width="30" height="30" as="geometry" />
        </mxCell>
        <mxCell id="C-vyLk0tnHw3VtMMgP7b-26" value="student_id NOT NULL " style="shape=partialRectangle;overflow=hidden;connectable=0;fillColor=none;top=0;left=0;bottom=0;right=0;align=left;spacingLeft=6;fontStyle=5;" parent="C-vyLk0tnHw3VtMMgP7b-24" vertex="1">
          <mxGeometry x="30" width="220" height="30" as="geometry" />
        </mxCell>
        <mxCell id="C-vyLk0tnHw3VtMMgP7b-27" value="" style="shape=partialRectangle;collapsible=0;dropTarget=0;pointerEvents=0;fillColor=none;points=[[0,0.5],[1,0.5]];portConstraint=eastwest;top=0;left=0;right=0;bottom=0;" parent="C-vyLk0tnHw3VtMMgP7b-23" vertex="1">
          <mxGeometry y="60" width="250" height="30" as="geometry" />
        </mxCell>
        <mxCell id="C-vyLk0tnHw3VtMMgP7b-28" value="" style="shape=partialRectangle;overflow=hidden;connectable=0;fillColor=none;top=0;left=0;bottom=0;right=0;" parent="C-vyLk0tnHw3VtMMgP7b-27" vertex="1">
          <mxGeometry width="30" height="30" as="geometry" />
        </mxCell>
        <mxCell id="C-vyLk0tnHw3VtMMgP7b-29" value="first_name varchar(50)" style="shape=partialRectangle;overflow=hidden;connectable=0;fillColor=none;top=0;left=0;bottom=0;right=0;align=left;spacingLeft=6;" parent="C-vyLk0tnHw3VtMMgP7b-27" vertex="1">
          <mxGeometry x="30" width="220" height="30" as="geometry" />
        </mxCell>
        <mxCell id="V0NO3VjL0VKziDa6hl1m-1" value="last_name varchar(50)" style="shape=partialRectangle;overflow=hidden;connectable=0;fillColor=none;top=0;left=0;bottom=0;right=0;align=left;spacingLeft=6;" vertex="1" parent="V0NO3VjL0VKziDa6hl1m-67">
          <mxGeometry x="30" y="80" width="220" height="30" as="geometry" />
        </mxCell>
        <mxCell id="V0NO3VjL0VKziDa6hl1m-65" value="" style="group" vertex="1" connectable="0" parent="V0NO3VjL0VKziDa6hl1m-67">
          <mxGeometry x="30" y="100" width="220" height="70" as="geometry" />
        </mxCell>
        <mxCell id="V0NO3VjL0VKziDa6hl1m-3" value="ssn varchar(9)" style="shape=partialRectangle;overflow=hidden;connectable=0;fillColor=none;top=0;left=0;bottom=0;right=0;align=left;spacingLeft=6;" vertex="1" parent="V0NO3VjL0VKziDa6hl1m-65">
          <mxGeometry width="220" height="30" as="geometry" />
        </mxCell>
        <mxCell id="V0NO3VjL0VKziDa6hl1m-5" value="phone varchar(10)" style="shape=partialRectangle;overflow=hidden;connectable=0;fillColor=none;top=0;left=0;bottom=0;right=0;align=left;spacingLeft=6;" vertex="1" parent="V0NO3VjL0VKziDa6hl1m-65">
          <mxGeometry y="40" width="220" height="30" as="geometry" />
        </mxCell>
        <mxCell id="V0NO3VjL0VKziDa6hl1m-86" value="" style="shape=table;startSize=0;container=1;collapsible=1;childLayout=tableLayout;fixedRows=1;rowLines=0;fontStyle=0;align=center;resizeLast=1;strokeColor=none;fillColor=none;" vertex="1" parent="V0NO3VjL0VKziDa6hl1m-65">
          <mxGeometry x="-30" y="20" width="250" height="30" as="geometry" />
        </mxCell>
        <mxCell id="V0NO3VjL0VKziDa6hl1m-87" value="" style="shape=partialRectangle;collapsible=0;dropTarget=0;pointerEvents=0;fillColor=none;top=0;left=0;bottom=0;right=0;points=[[0,0.5],[1,0.5]];portConstraint=eastwest;" vertex="1" parent="V0NO3VjL0VKziDa6hl1m-86">
          <mxGeometry width="250" height="30" as="geometry" />
        </mxCell>
        <mxCell id="V0NO3VjL0VKziDa6hl1m-88" value="FK" style="shape=partialRectangle;connectable=0;fillColor=none;top=0;left=0;bottom=0;right=0;fontStyle=0;overflow=hidden;" vertex="1" parent="V0NO3VjL0VKziDa6hl1m-87">
          <mxGeometry width="30" height="30" as="geometry" />
        </mxCell>
        <mxCell id="V0NO3VjL0VKziDa6hl1m-89" value="address_id varchar(10)" style="shape=partialRectangle;connectable=0;fillColor=none;top=0;left=0;bottom=0;right=0;align=left;spacingLeft=6;fontStyle=0;overflow=hidden;" vertex="1" parent="V0NO3VjL0VKziDa6hl1m-87">
          <mxGeometry x="30" width="220" height="30" as="geometry" />
        </mxCell>
        <mxCell id="V0NO3VjL0VKziDa6hl1m-68" value="address" style="shape=table;startSize=30;container=1;collapsible=1;childLayout=tableLayout;fixedRows=1;rowLines=0;fontStyle=1;align=center;resizeLast=1;" vertex="1" parent="1">
          <mxGeometry x="460" y="10" width="230" height="200" as="geometry">
            <mxRectangle x="400" y="320" width="80" height="30" as="alternateBounds" />
          </mxGeometry>
        </mxCell>
        <mxCell id="V0NO3VjL0VKziDa6hl1m-69" value="" style="shape=partialRectangle;collapsible=0;dropTarget=0;pointerEvents=0;fillColor=none;top=0;left=0;bottom=1;right=0;points=[[0,0.5],[1,0.5]];portConstraint=eastwest;" vertex="1" parent="V0NO3VjL0VKziDa6hl1m-68">
          <mxGeometry y="30" width="230" height="30" as="geometry" />
        </mxCell>
        <mxCell id="V0NO3VjL0VKziDa6hl1m-70" value="PK" style="shape=partialRectangle;connectable=0;fillColor=none;top=0;left=0;bottom=0;right=0;fontStyle=1;overflow=hidden;" vertex="1" parent="V0NO3VjL0VKziDa6hl1m-69">
          <mxGeometry width="30" height="30" as="geometry" />
        </mxCell>
        <mxCell id="V0NO3VjL0VKziDa6hl1m-71" value="address_id varchar (10)NOT NULL" style="shape=partialRectangle;connectable=0;fillColor=none;top=0;left=0;bottom=0;right=0;align=left;spacingLeft=6;fontStyle=5;overflow=hidden;" vertex="1" parent="V0NO3VjL0VKziDa6hl1m-69">
          <mxGeometry x="30" width="200" height="30" as="geometry" />
        </mxCell>
        <mxCell id="V0NO3VjL0VKziDa6hl1m-72" value="" style="shape=partialRectangle;collapsible=0;dropTarget=0;pointerEvents=0;fillColor=none;top=0;left=0;bottom=0;right=0;points=[[0,0.5],[1,0.5]];portConstraint=eastwest;" vertex="1" parent="V0NO3VjL0VKziDa6hl1m-68">
          <mxGeometry y="60" width="230" height="30" as="geometry" />
        </mxCell>
        <mxCell id="V0NO3VjL0VKziDa6hl1m-73" value="" style="shape=partialRectangle;connectable=0;fillColor=none;top=0;left=0;bottom=0;right=0;editable=1;overflow=hidden;" vertex="1" parent="V0NO3VjL0VKziDa6hl1m-72">
          <mxGeometry width="30" height="30" as="geometry" />
        </mxCell>
        <mxCell id="V0NO3VjL0VKziDa6hl1m-74" value="street varchar (50)" style="shape=partialRectangle;connectable=0;fillColor=none;top=0;left=0;bottom=0;right=0;align=left;spacingLeft=6;overflow=hidden;" vertex="1" parent="V0NO3VjL0VKziDa6hl1m-72">
          <mxGeometry x="30" width="200" height="30" as="geometry" />
        </mxCell>
        <mxCell id="V0NO3VjL0VKziDa6hl1m-75" value="" style="shape=partialRectangle;collapsible=0;dropTarget=0;pointerEvents=0;fillColor=none;top=0;left=0;bottom=0;right=0;points=[[0,0.5],[1,0.5]];portConstraint=eastwest;" vertex="1" parent="V0NO3VjL0VKziDa6hl1m-68">
          <mxGeometry y="90" width="230" height="30" as="geometry" />
        </mxCell>
        <mxCell id="V0NO3VjL0VKziDa6hl1m-76" value="" style="shape=partialRectangle;connectable=0;fillColor=none;top=0;left=0;bottom=0;right=0;editable=1;overflow=hidden;" vertex="1" parent="V0NO3VjL0VKziDa6hl1m-75">
          <mxGeometry width="30" height="30" as="geometry" />
        </mxCell>
        <mxCell id="V0NO3VjL0VKziDa6hl1m-77" value="address_number varchar(10) " style="shape=partialRectangle;connectable=0;fillColor=none;top=0;left=0;bottom=0;right=0;align=left;spacingLeft=6;overflow=hidden;" vertex="1" parent="V0NO3VjL0VKziDa6hl1m-75">
          <mxGeometry x="30" width="200" height="30" as="geometry" />
        </mxCell>
        <mxCell id="V0NO3VjL0VKziDa6hl1m-78" value="" style="shape=partialRectangle;collapsible=0;dropTarget=0;pointerEvents=0;fillColor=none;top=0;left=0;bottom=0;right=0;points=[[0,0.5],[1,0.5]];portConstraint=eastwest;" vertex="1" parent="V0NO3VjL0VKziDa6hl1m-68">
          <mxGeometry y="120" width="230" height="30" as="geometry" />
        </mxCell>
        <mxCell id="V0NO3VjL0VKziDa6hl1m-79" value="" style="shape=partialRectangle;connectable=0;fillColor=none;top=0;left=0;bottom=0;right=0;editable=1;overflow=hidden;" vertex="1" parent="V0NO3VjL0VKziDa6hl1m-78">
          <mxGeometry width="30" height="30" as="geometry" />
        </mxCell>
        <mxCell id="V0NO3VjL0VKziDa6hl1m-80" value="state varchar(2)" style="shape=partialRectangle;connectable=0;fillColor=none;top=0;left=0;bottom=0;right=0;align=left;spacingLeft=6;overflow=hidden;" vertex="1" parent="V0NO3VjL0VKziDa6hl1m-78">
          <mxGeometry x="30" width="200" height="30" as="geometry" />
        </mxCell>
        <mxCell id="V0NO3VjL0VKziDa6hl1m-83" value="" style="shape=partialRectangle;collapsible=0;dropTarget=0;pointerEvents=0;fillColor=none;top=0;left=0;bottom=0;right=0;points=[[0,0.5],[1,0.5]];portConstraint=eastwest;" vertex="1" parent="V0NO3VjL0VKziDa6hl1m-68">
          <mxGeometry y="150" width="230" height="30" as="geometry" />
        </mxCell>
        <mxCell id="V0NO3VjL0VKziDa6hl1m-84" value="" style="shape=partialRectangle;connectable=0;fillColor=none;top=0;left=0;bottom=0;right=0;editable=1;overflow=hidden;" vertex="1" parent="V0NO3VjL0VKziDa6hl1m-83">
          <mxGeometry width="30" height="30" as="geometry" />
        </mxCell>
        <mxCell id="V0NO3VjL0VKziDa6hl1m-85" value="zipcode varchar(5)" style="shape=partialRectangle;connectable=0;fillColor=none;top=0;left=0;bottom=0;right=0;align=left;spacingLeft=6;overflow=hidden;" vertex="1" parent="V0NO3VjL0VKziDa6hl1m-83">
          <mxGeometry x="30" width="200" height="30" as="geometry" />
        </mxCell>
        <mxCell id="V0NO3VjL0VKziDa6hl1m-91" value="" style="edgeStyle=entityRelationEdgeStyle;fontSize=12;html=1;endArrow=ERmandOne;startArrow=ERmandOne;entryX=0;entryY=0.5;entryDx=0;entryDy=0;exitX=1;exitY=0.5;exitDx=0;exitDy=0;" edge="1" parent="1" source="V0NO3VjL0VKziDa6hl1m-87" target="V0NO3VjL0VKziDa6hl1m-69">
          <mxGeometry width="100" height="100" relative="1" as="geometry">
            <mxPoint x="320" y="440" as="sourcePoint" />
            <mxPoint x="420" y="340" as="targetPoint" />
          </mxGeometry>
        </mxCell>
        <mxCell id="V0NO3VjL0VKziDa6hl1m-92" value="" style="edgeStyle=entityRelationEdgeStyle;fontSize=12;html=1;endArrow=ERmandOne;startArrow=ERmandOne;entryX=0;entryY=0.5;entryDx=0;entryDy=0;exitX=1;exitY=0.75;exitDx=0;exitDy=0;" edge="1" parent="1" source="C-vyLk0tnHw3VtMMgP7b-23" target="C-vyLk0tnHw3VtMMgP7b-3">
          <mxGeometry width="100" height="100" relative="1" as="geometry">
            <mxPoint x="290" y="350" as="sourcePoint" />
            <mxPoint x="420" y="340" as="targetPoint" />
          </mxGeometry>
        </mxCell>
        <mxCell id="V0NO3VjL0VKziDa6hl1m-93" value="" style="edgeStyle=entityRelationEdgeStyle;fontSize=12;html=1;endArrow=ERzeroToMany;startArrow=ERzeroToOne;entryX=0;entryY=0.5;entryDx=0;entryDy=0;exitX=1;exitY=1;exitDx=0;exitDy=0;" edge="1" parent="1" source="C-vyLk0tnHw3VtMMgP7b-23" target="C-vyLk0tnHw3VtMMgP7b-3">
          <mxGeometry width="100" height="100" relative="1" as="geometry">
            <mxPoint x="290" y="370" as="sourcePoint" />
            <mxPoint x="650" y="340" as="targetPoint" />
          </mxGeometry>
        </mxCell>
        <mxCell id="V0NO3VjL0VKziDa6hl1m-94" value="" style="edgeStyle=entityRelationEdgeStyle;fontSize=12;html=1;endArrow=ERmandOne;startArrow=ERmandOne;entryX=0;entryY=0.75;entryDx=0;entryDy=0;exitX=0;exitY=0.75;exitDx=0;exitDy=0;" edge="1" parent="1" source="V0NO3VjL0VKziDa6hl1m-24" target="C-vyLk0tnHw3VtMMgP7b-2">
          <mxGeometry width="100" height="100" relative="1" as="geometry">
            <mxPoint x="650" y="590" as="sourcePoint" />
            <mxPoint x="710" y="340" as="targetPoint" />
          </mxGeometry>
        </mxCell>
        <mxCell id="V0NO3VjL0VKziDa6hl1m-95" value="" style="edgeStyle=entityRelationEdgeStyle;fontSize=12;html=1;endArrow=ERmandOne;startArrow=ERmandOne;exitX=1;exitY=1;exitDx=0;exitDy=0;entryX=0;entryY=0.5;entryDx=0;entryDy=0;" edge="1" parent="1" source="C-vyLk0tnHw3VtMMgP7b-13" target="C-vyLk0tnHw3VtMMgP7b-3">
          <mxGeometry width="100" height="100" relative="1" as="geometry">
            <mxPoint x="580" y="570" as="sourcePoint" />
            <mxPoint x="680" y="470" as="targetPoint" />
          </mxGeometry>
        </mxCell>
        <mxCell id="V0NO3VjL0VKziDa6hl1m-96" value="" style="edgeStyle=entityRelationEdgeStyle;fontSize=12;html=1;endArrow=ERmandOne;startArrow=ERmandOne;exitX=1;exitY=0.5;exitDx=0;exitDy=0;entryX=0;entryY=0.5;entryDx=0;entryDy=0;" edge="1" parent="1" source="V0NO3VjL0VKziDa6hl1m-38" target="V0NO3VjL0VKziDa6hl1m-25">
          <mxGeometry width="100" height="100" relative="1" as="geometry">
            <mxPoint x="370" y="710" as="sourcePoint" />
            <mxPoint x="780" y="610" as="targetPoint" />
          </mxGeometry>
        </mxCell>
        <mxCell id="V0NO3VjL0VKziDa6hl1m-97" value="" style="edgeStyle=entityRelationEdgeStyle;fontSize=12;html=1;endArrow=ERmandOne;startArrow=ERmandOne;exitX=0;exitY=0.5;exitDx=0;exitDy=0;entryX=0;entryY=1;entryDx=0;entryDy=0;" edge="1" parent="1" source="C-vyLk0tnHw3VtMMgP7b-14" target="V0NO3VjL0VKziDa6hl1m-38">
          <mxGeometry width="100" height="100" relative="1" as="geometry">
            <mxPoint x="490" y="660" as="sourcePoint" />
            <mxPoint x="590" y="560" as="targetPoint" />
          </mxGeometry>
        </mxCell>
        <mxCell id="V0NO3VjL0VKziDa6hl1m-98" value="" style="edgeStyle=entityRelationEdgeStyle;fontSize=12;html=1;endArrow=ERmandOne;startArrow=ERmandOne;entryX=0;entryY=0.5;entryDx=0;entryDy=0;exitX=0;exitY=0.25;exitDx=0;exitDy=0;" edge="1" parent="1" source="V0NO3VjL0VKziDa6hl1m-38" target="V0NO3VjL0VKziDa6hl1m-49">
          <mxGeometry width="100" height="100" relative="1" as="geometry">
            <mxPoint x="490" y="870" as="sourcePoint" />
            <mxPoint x="590" y="770" as="targetPoint" />
          </mxGeometry>
        </mxCell>
        <mxCell id="V0NO3VjL0VKziDa6hl1m-99" value="" style="edgeStyle=entityRelationEdgeStyle;fontSize=12;html=1;endArrow=ERmandOne;startArrow=ERmandOne;entryX=0;entryY=0.5;entryDx=0;entryDy=0;exitX=0;exitY=0.75;exitDx=0;exitDy=0;" edge="1" parent="1" source="V0NO3VjL0VKziDa6hl1m-49" target="C-vyLk0tnHw3VtMMgP7b-24">
          <mxGeometry width="100" height="100" relative="1" as="geometry">
            <mxPoint x="490" y="470" as="sourcePoint" />
            <mxPoint x="590" y="370" as="targetPoint" />
          </mxGeometry>
        </mxCell>
      </root>
    </mxGraphModel>
  </diagram>
</mxfile>
